<?xml version="1.0" encoding="utf-8"?>
<!-- Generator: Adobe Illustrator 23.0.1, SVG Export Plug-In . SVG Version: 6.00 Build 0)  -->
<svg version="1.1" id="Layer_1" xmlns="http://www.w3.org/2000/svg" xmlns:xlink="http://www.w3.org/1999/xlink" x="0px" y="0px"
	 viewBox="0 0 256 256" style="enable-background:new 0 0 256 256;" xml:space="preserve">
<style type="text/css">
	.st0{fill:#FFB554;}
	.st1{fill:#E34E4B;}
	.st2{fill:#EA5B58;}
	.st3{fill:#F26B68;}
</style>
<circle class="st0" cx="128" cy="128" r="128"/>
<path class="st1" d="M170.84,63.74c0,0-11.57,10.95-24.87,26.22c-18.08-26.28-39.39-47.64-39.39-47.64s-64.26,64.26-64.26,107.11
	c0,47.9,21.42,64.26,64.26,64.26c10.41,0,19.49-1.33,27.38-3.86c7.3,2.55,15.92,3.86,26.18,3.86c35.71,0,53.55-28.55,53.55-64.26
	S170.84,63.74,170.84,63.74z"/>
<path class="st2" d="M170.84,149.42c0,47.32-21.42,64.26-64.26,64.26s-64.26-16.94-64.26-64.26s64.26-107.11,64.26-107.11
	S170.84,102.1,170.84,149.42z"/>
<path class="st3" d="M128,170.84c0,21.49-9.6,42.84-21.42,42.84s-21.42-21.36-21.42-42.84c0-23.67,21.42-64.26,21.42-64.26
	S128,147.17,128,170.84z"/>
</svg>
