<?xml version="1.0" encoding="utf-8"?>
<!-- Generator: Adobe Illustrator 23.0.1, SVG Export Plug-In . SVG Version: 6.00 Build 0)  -->
<svg version="1.1" id="Layer_1" xmlns="http://www.w3.org/2000/svg" xmlns:xlink="http://www.w3.org/1999/xlink" x="0px" y="0px"
	 viewBox="0 0 256 256" style="enable-background:new 0 0 256 256;" xml:space="preserve">
<style type="text/css">
	.st0{fill:#FFB554;}
	.st1{fill:#5DC4DD;}
	.st2{fill:#50B6CF;}
</style>
<circle id="XMLID_6_" class="st0" cx="128" cy="128" r="128"/>
<circle id="XMLID_5_" class="st1" cx="128" cy="128" r="94"/>
<path class="st2" d="M45.6,82.7c2.3,0.8,4.3,1.7,6.6,2.9c6.3,3.2,14.2,7.1,28.7,7.1s22.4-3.9,28.7-7.1c5.4-2.7,9.3-4.6,18.2-4.6
	c9,0,12.9,2,18.3,4.6c6.3,3.2,14.2,7.1,28.8,7.1c14.5,0,22.4-3.9,28.8-7.1c2.3-1.2,4.4-2.1,6.7-2.9c-3.9-7.1-8.8-13.6-14.3-19.5
	c-0.9,0.5-2,0.9-2.8,1.4c-5.4,2.7-9.3,4.6-18.3,4.6c-9,0-12.9-2-18.3-4.6c-6.3-3.2-14.3-7.1-28.8-7.1c-14.5,0-22.4,3.9-28.7,7.1
	c-5.4,2.7-9.3,4.6-18.2,4.6s-12.8-2-18.2-4.6c-0.9-0.4-1.9-0.9-2.8-1.3C54.4,69.1,49.5,75.6,45.6,82.7L45.6,82.7z"/>
<path class="st2" d="M193.2,170.4c-5.4,2.7-9.3,4.6-18.3,4.6c-9,0-12.9-2-18.3-4.6c-6.3-3.2-14.3-7.1-28.8-7.1
	c-14.5,0-22.4,3.9-28.7,7.1C93.8,173,89.9,175,81,175s-12.8-2-18.2-4.6c-5.2-2.6-11.6-5.6-21.7-6.6C46.1,176,53.8,187,63.2,196
	c4.6,1.4,10.3,2.5,17.7,2.5c14.5,0,22.4-3.9,28.7-7.1c5.4-2.7,9.3-4.6,18.2-4.6c9,0,12.9,2,18.3,4.6c6.3,3.2,14.2,7.1,28.8,7.1
	c7.5,0,13.2-1.1,17.8-2.5c9.5-9,17.1-20,22.1-32.3C204.9,164.8,198.4,167.8,193.2,170.4z"/>
<path class="st2" d="M193.2,117.5c-5.4,2.7-9.3,4.6-18.3,4.6c-9,0-12.9-2-18.3-4.6c-6.3-3.2-14.2-7.1-28.8-7.1
	c-14.5,0-22.4,3.9-28.7,7.1c-5.4,2.7-9.3,4.6-18.2,4.6s-12.8-2-18.2-4.6c-6.1-3-13.7-6.7-27-7C34.6,116.2,34,122,34,128
	c0,2,0.2,3.9,0.3,5.9c8.7,0,12.6,2,17.9,4.6c6.3,3.2,14.2,7.1,28.7,7.1s22.4-3.9,28.7-7.1c5.4-2.7,9.3-4.6,18.2-4.6
	c9,0,12.9,2,18.3,4.6c6.3,3.2,14.2,7.1,28.8,7.1c14.5,0,22.4-3.9,28.8-7.1c5.3-2.7,9.2-4.6,18-4.6c0.1-2,0.3-3.9,0.3-5.9
	c0-6-0.6-11.8-1.7-17.5C206.9,110.8,199.3,114.5,193.2,117.5z"/>
</svg>
